<svg width="22" height="22" viewBox="0 0 32 32" fill="none" xmlns="http://www.w3.org/2000/svg">
<g clip-path="url(#clip0_79_15)">
<path d="M24.1666 30.0001H21.8333C21.5239 30.0001 21.2271 29.8772 21.0083 29.6584C20.7895 29.4396 20.6666 29.1428 20.6666 28.8334C20.6666 28.524 20.7895 28.2272 21.0083 28.0085C21.2271 27.7897 21.5239 27.6667 21.8333 27.6667H24.1666C25.0949 27.6667 25.9851 27.298 26.6415 26.6416C27.2979 25.9852 27.6666 25.095 27.6666 24.1667V21.8334C27.6666 21.524 27.7895 21.2272 28.0083 21.0085C28.2271 20.7897 28.5239 20.6667 28.8333 20.6667C29.1427 20.6667 29.4395 20.7897 29.6583 21.0085C29.877 21.2272 30 21.524 30 21.8334V24.1667C29.9981 25.7133 29.3829 27.1959 28.2894 28.2895C27.1958 29.3831 25.7132 29.9982 24.1666 30.0001V30.0001Z" />
<path d="M3.16667 11.3333C2.85725 11.3333 2.5605 11.2104 2.34171 10.9916C2.12292 10.7728 2 10.4761 2 10.1667V7.83333C2.00185 6.28681 2.61703 4.80415 3.71059 3.71059C4.80415 2.61703 6.28681 2.00185 7.83333 2L10.1667 2C10.4761 2 10.7728 2.12292 10.9916 2.34171C11.2104 2.5605 11.3333 2.85725 11.3333 3.16667C11.3333 3.47609 11.2104 3.77283 10.9916 3.99162C10.7728 4.21042 10.4761 4.33333 10.1667 4.33333H7.83333C6.90508 4.33333 6.01484 4.70208 5.35846 5.35846C4.70208 6.01484 4.33333 6.90508 4.33333 7.83333V10.1667C4.33333 10.4761 4.21042 10.7728 3.99162 10.9916C3.77283 11.2104 3.47609 11.3333 3.16667 11.3333V11.3333Z" />
<path d="M10.1667 30.0001H7.83333C6.28681 29.9982 4.80415 29.3831 3.71059 28.2895C2.61703 27.1959 2.00185 25.7133 2 24.1667L2 21.8334C2 21.524 2.12292 21.2272 2.34171 21.0085C2.5605 20.7897 2.85725 20.6667 3.16667 20.6667C3.47609 20.6667 3.77283 20.7897 3.99162 21.0085C4.21042 21.2272 4.33333 21.524 4.33333 21.8334V24.1667C4.33333 25.095 4.70208 25.9852 5.35846 26.6416C6.01484 27.298 6.90508 27.6667 7.83333 27.6667H10.1667C10.4761 27.6667 10.7728 27.7897 10.9916 28.0085C11.2104 28.2272 11.3333 28.524 11.3333 28.8334C11.3333 29.1428 11.2104 29.4396 10.9916 29.6584C10.7728 29.8772 10.4761 30.0001 10.1667 30.0001Z" />
<path d="M28.8333 11.3333C28.5239 11.3333 28.2271 11.2104 28.0083 10.9916C27.7895 10.7728 27.6666 10.4761 27.6666 10.1667V7.83333C27.6666 6.90508 27.2979 6.01484 26.6415 5.35846C25.9851 4.70208 25.0949 4.33333 24.1666 4.33333H21.8333C21.5239 4.33333 21.2271 4.21042 21.0083 3.99162C20.7895 3.77283 20.6666 3.47609 20.6666 3.16667C20.6666 2.85725 20.7895 2.5605 21.0083 2.34171C21.2271 2.12292 21.5239 2 21.8333 2H24.1666C25.7132 2.00185 27.1958 2.61703 28.2894 3.71059C29.3829 4.80415 29.9981 6.28681 30 7.83333V10.1667C30 10.4761 29.877 10.7728 29.6583 10.9916C29.4395 11.2104 29.1427 11.3333 28.8333 11.3333Z" />
</g>
</svg>
