<svg width="128" height="128" viewBox="0 0 128 128" fill="none" xmlns="http://www.w3.org/2000/svg">
<g clip-path="url(#clip0_139_15)">
<path d="M109.612 25.0913L101.372 117.407L64.3297 127.676L27.3898 117.422L19.1577 25.0913H109.612Z" fill="#E44D26"/>
<path d="M64.3853 119.827L94.317 111.529L101.359 32.6406H64.3853V119.827Z" fill="#F16529"/>
<path d="M48.3653 55.2888H64.3848V43.9648H35.9897L36.2606 47.0028L39.044 78.2086H64.3848V66.8846H49.4003L48.3653 55.2888V55.2888ZM50.9175 83.8707H39.55L41.1363 101.651L64.3327 108.09L64.3848 108.076V96.2941L64.3352 96.3073L51.7238 92.902L50.9175 83.8707V83.8707Z" fill="#EBEBEB"/>
<path d="M27.5737 0H33.3284V5.68554H38.5927V0H44.3478V17.2172H38.5931V11.4519H33.3288V17.2172H27.5741V0H27.5737ZM51.915 5.70965H46.8496V0H62.7393V5.70965H57.6708V17.2172H51.9161V5.70965H51.9157H51.915ZM65.261 0H71.2614L74.9525 6.04968L78.6401 0H84.6429V17.2172H78.9117V8.68344L74.9525 14.8051H74.8532L70.8916 8.68344V17.2172H65.261V0ZM87.5068 0H93.2633V11.5264H101.356V17.2172H87.5064V0H87.5068Z" fill="black"/>
<path d="M64.3461 78.2086H78.2903L76.9755 92.8949L64.3457 96.3037V108.085L87.5605 101.651L87.7307 99.7377L90.3921 69.9254L90.6683 66.8846H64.3461V78.2086ZM64.3461 55.2611V55.2888H91.6987L91.9256 52.7437L92.4419 47.0028L92.7124 43.9648H64.3461V55.2615V55.2611Z" fill="white"/>
</g>
<defs>
<clipPath id="clip0_139_15">
<rect width="90.7776" height="128" fill="white" transform="translate(19)"/>
</clipPath>
</defs>
</svg>
