<svg width="22" height="22" viewBox="0 0 32 32" fill="none" xmlns="http://www.w3.org/2000/svg">
<path d="M24.1667 2H7.83333C6.28624 2 4.80251 2.61458 3.70854 3.70854C2.61458 4.80251 2 6.28624 2 7.83333L2 24.1667C2 24.9327 2.15088 25.6913 2.44404 26.399C2.73719 27.1067 3.16687 27.7498 3.70854 28.2915C4.80251 29.3854 6.28624 30 7.83333 30H24.1667C24.9327 30 25.6913 29.8491 26.399 29.556C27.1067 29.2628 27.7498 28.8331 28.2915 28.2915C28.8331 27.7498 29.2628 27.1067 29.556 26.399C29.8491 25.6913 30 24.9327 30 24.1667V7.83333C30 7.06729 29.8491 6.30875 29.556 5.60101C29.2628 4.89328 28.8331 4.25022 28.2915 3.70854C27.7498 3.16687 27.1067 2.73719 26.399 2.44404C25.6913 2.15088 24.9327 2 24.1667 2V2ZM27.6667 24.1667C27.6667 25.0949 27.2979 25.9852 26.6415 26.6415C25.9852 27.2979 25.0949 27.6667 24.1667 27.6667H7.83333C6.90508 27.6667 6.01484 27.2979 5.35846 26.6415C4.70208 25.9852 4.33333 25.0949 4.33333 24.1667V7.83333C4.33333 6.90508 4.70208 6.01484 5.35846 5.35846C6.01484 4.70208 6.90508 4.33333 7.83333 4.33333H24.1667C25.0949 4.33333 25.9852 4.70208 26.6415 5.35846C27.2979 6.01484 27.6667 6.90508 27.6667 7.83333V24.1667Z" />
</svg>